<svg xmlns="http://www.w3.org/2000/svg" viewBox="0 0 1280 300" role="img" aria-label="Guardião — escudo e espadas">
      <defs>
        <radialGradient id="gu-bg" cx="0.15" cy="0.5" r="1"><stop offset="0" stop-color="#031a15"/><stop offset="1" stop-color="#01070a"/></radialGradient>
        <radialGradient id="gu-glow" cx="0.5" cy="0.5" r="0.5"><stop offset="0" stop-color="#22e0a3" stop-opacity=".55"/><stop offset="1" stop-color="#22e0a3" stop-opacity="0"/></radialGradient>
      </defs>
      <rect width="1280" height="300" fill="url(#gu-bg)"/>
      <g fill="none" stroke="#22e0a3" stroke-linecap="round" stroke-linejoin="round">
        <g stroke-opacity=".14" stroke-width="2"><path d="M600 276 H1150"/><path d="M812 276 V214 Q812 202 824 202 H1002"/><path d="M690 30 H1040"/><path d="M1176 66 V236"/></g>
        <g stroke-opacity=".4"><circle cx="600" cy="276" r="6" fill="#22e0a3" fill-opacity=".3"/><circle cx="690" cy="30" r="4" fill="#22e0a3" fill-opacity=".3"/><rect x="994" y="186" width="16" height="16" rx="2" fill="#22e0a3" fill-opacity=".22"/><path d="M1150 276 h30 m-9 -6 l13 6 -13 6"/></g>
        <g stroke="#bafce6" stroke-width="2.4" stroke-opacity=".9" stroke-dasharray="9 620">
          <path d="M600 276 H1150"><animate attributeName="stroke-dashoffset" values="629;0" dur="3.6s" repeatCount="indefinite"/></path>
          <path d="M812 276 V214 Q812 202 824 202 H1002"><animate attributeName="stroke-dashoffset" values="629;0" dur="4.4s" begin="-1.2s" repeatCount="indefinite"/></path>
          <path d="M690 30 H1040"><animate attributeName="stroke-dashoffset" values="629;0" dur="3.4s" begin="-0.8s" repeatCount="indefinite"/></path>
          <path d="M1176 66 V236"><animate attributeName="stroke-dashoffset" values="629;0" dur="3.1s" begin="-2s" repeatCount="indefinite"/></path>
        </g>
        <circle r="3.5" fill="#bafce6"><animateMotion path="M600 276 H1150" dur="3.6s" repeatCount="indefinite"/></circle>
      </g>
      <g font-family="ui-monospace,Menlo,Consolas,monospace" font-size="13" fill="#22e0a3">
        <text x="500" opacity=".15">01<tspan x="500" dy="17">1</tspan><tspan x="500" dy="17">0</tspan><animateTransform attributeName="transform" type="translate" values="0,-60;0,320" dur="8s" begin="-2s" repeatCount="indefinite"/></text>
        <text x="700" opacity=".11">1<tspan x="700" dy="17">0</tspan><tspan x="700" dy="17">1</tspan><tspan x="700" dy="17">1</tspan><animateTransform attributeName="transform" type="translate" values="0,-80;0,320" dur="6.5s" begin="-3s" repeatCount="indefinite"/></text>
        <text x="960" opacity=".13">0<tspan x="960" dy="17">0</tspan><tspan x="960" dy="17">1</tspan><animateTransform attributeName="transform" type="translate" values="0,-40;0,320" dur="9s" repeatCount="indefinite"/></text>
      </g>
      <g transform="translate(190,150)">
        <circle r="128" fill="url(#gu-glow)"><animate attributeName="opacity" values=".6;1;.6" dur="3.6s" repeatCount="indefinite"/></circle>
        <!-- barrier ripple -->
        <circle r="80" fill="none" stroke="#22e0a3" stroke-width="2" stroke-opacity=".5"><animate attributeName="r" values="70;130" dur="3.4s" repeatCount="indefinite"/><animate attributeName="stroke-opacity" values=".5;0" dur="3.4s" repeatCount="indefinite"/></circle>
        <!-- crossed swords -->
        <g stroke="#7ffbd0" stroke-width="4" stroke-linecap="round" opacity=".8">
          <path d="M-70 -78 L58 74"/><path d="M70 -78 L-58 74"/>
          <path d="M-70 -78 l-10 -4 l4 12M70 -78 l10 -4 l-4 12"/>
          <path d="M-64 62 h-20M64 62 h20"/>
        </g>
        <!-- shield breathing -->
        <g>
          <path d="M0 -84 L72 -54 V6 C72 58 40 86 0 100 C-40 86 -72 58 -72 6 V-54 Z" fill="#052a20" stroke="#2ff0ae" stroke-width="3"/>
          <path d="M0 -64 L52 -40 V4 C52 44 28 66 0 78 C-28 66 -52 44 -52 4 V-40 Z" fill="none" stroke="#22e0a3" stroke-opacity=".4"/>
          <circle cx="0" cy="-8" r="14" fill="none" stroke="#7ffbd0" stroke-width="3"/>
          <rect x="-3.5" y="-2" width="7" height="28" rx="3.5" fill="#7ffbd0"/>
          <animateTransform attributeName="transform" type="scale" values="1;1.05;1" dur="3.6s" additive="sum" repeatCount="indefinite"/>
        </g>
      </g>
      <text x="410" y="118" font-family="ui-monospace,Menlo,Consolas,monospace" font-size="15" letter-spacing="5" fill="#5cf0bc" opacity=".9">SCANNER DE SEGREDOS · CÓDIGO + HISTÓRICO GIT</text>
      <text x="408" y="192" font-family="Segoe UI,system-ui,sans-serif" font-weight="800" font-size="78" letter-spacing="-1" fill="#e8fff6">Guardião</text>
      <text x="412" y="232" font-family="Segoe UI,system-ui,sans-serif" font-size="21" fill="#9be0c6">Vigia a fronteira do seu código. Nada de segredo passa.</text>
      <g font-family="ui-monospace,Menlo,Consolas,monospace" font-size="13" fill="#88dcbb">
        <rect x="412" y="250" width="106" height="26" rx="13" fill="none" stroke="#22e0a3" stroke-opacity=".4"/><text x="426" y="267">regex+entropia</text>
        <rect x="526" y="250" width="86" height="26" rx="13" fill="none" stroke="#22e0a3" stroke-opacity=".4"/><text x="540" y="267">baseline</text>
        <rect x="620" y="250" width="112" height="26" rx="13" fill="none" stroke="#22e0a3" stroke-opacity=".4"/><text x="634" y="267">pre-commit</text>
      </g>
      <g transform="translate(1092,44)"><rect width="150" height="34" rx="17" fill="#04231a" stroke="#f5c451" stroke-opacity=".55"/><path d="M22 17a5 5 0 0 1 10 0v4M20 21h14v11H20z" fill="none" stroke="#f5c451" stroke-width="1.5"/><text x="44" y="23" font-family="ui-monospace,Menlo,Consolas,monospace" font-size="13" letter-spacing="1" fill="#f3d488">PRO · privado</text></g>
    </svg>